<svg xmlns="http://www.w3.org/2000/svg" width="230" height="230" viewBox="0 0 230 230">
  <g id="Grupo_94" data-name="Grupo 94" transform="translate(-3070 -96)">
    <g id="Grupo_93" data-name="Grupo 93" transform="translate(3069.939 96)">
      <g id="Trazado_1702" data-name="Trazado 1702" transform="translate(115.061 229.741) rotate(180)" fill="#fff">
        <path d="M 104.5454635620117 112.5 L 10.45456695556641 112.5 C 8.482916831970215 112.5 6.575550079345703 111.3704147338867 5.083849906921387 109.3193130493164 C 3.417633295059204 107.0282669067383 2.5 103.9405670166016 2.5 100.625 L 2.5 14.375 C 2.5 11.05943298339844 3.417633295059204 7.971733570098877 5.083849906921387 5.680683135986328 C 6.575550079345703 3.629583358764648 8.482916831970215 2.5 10.45456695556641 2.5 L 104.5454330444336 2.5 C 106.5170974731445 2.5 108.4244537353516 3.629583358764648 109.9161529541016 5.680666446685791 C 111.5823516845703 7.97171688079834 112.4999847412109 11.05941677093506 112.5 14.37501621246338 L 112.5 100.625 C 112.5 103.9405822753906 111.5823822021484 107.0282821655273 109.9161682128906 109.3193359375 C 108.4244689941406 111.3704147338867 106.5171203613281 112.5 104.5454635620117 112.5 Z" stroke="none"/>
        <path d="M 10.45458221435547 5 C 8.901962280273438 5 7.689956665039063 6.347740173339844 7.105682373046875 7.151123046875 C 5.767501831054688 8.991119384765625 5 11.62412261962891 5 14.375 L 5 100.6249771118164 C 5 103.375862121582 5.767501831054688 106.0088577270508 7.105682373046875 107.848876953125 C 7.689956665039063 108.6522598266602 8.901962280273438 110 10.45458221435547 110 L 104.5454559326172 110 C 106.0980606079102 110 107.31005859375 108.6522598266602 107.8943176269531 107.8488998413086 C 109.2324981689453 106.0088806152344 110 103.375862121582 110 100.6249771118164 L 110 14.37502288818359 C 109.9999771118164 11.62413787841797 109.2324829101563 8.991119384765625 107.8943023681641 7.151100158691406 C 107.3100433349609 6.347740173339844 106.0980377197266 5 104.5454406738281 5 L 10.45458221435547 5 M 10.45458221435547 0 L 104.5454406738281 0 C 110.3195190429688 0 114.9999618530273 6.435661315917969 115 14.375 L 115 100.6249771118164 C 115 108.564338684082 110.3195190429688 115 104.5454559326172 115 L 10.45458221435547 115 C 4.680496215820313 115 0 108.564323425293 0 100.6249771118164 L 0 14.375 C 0 6.435661315917969 4.680496215820313 0 10.45458221435547 0 Z" stroke="none" fill="#08a8ef"/>
      </g>
      <g id="Trazado_1703" data-name="Trazado 1703" transform="translate(115.061 115) rotate(180)" fill="#fff">
        <path d="M 104.5454635620117 112.5 L 10.45456695556641 112.5 C 8.482916831970215 112.5 6.575550079345703 111.3704223632813 5.083849906921387 109.3193206787109 C 3.417633295059204 107.0282669067383 2.5 103.9405517578125 2.5 100.6249847412109 L 2.5 14.37500381469727 C 2.5 11.05942058563232 3.417633295059204 7.971720695495605 5.083849906921387 5.680686950683594 C 6.575550079345703 3.629587173461914 8.482916831970215 2.500003814697266 10.45456695556641 2.500003814697266 L 104.5454330444336 2.500003814697266 C 106.5170974731445 2.500003814697266 108.4244537353516 3.629587173461914 109.9161529541016 5.680670261383057 C 111.5823516845703 7.971704006195068 112.4999847412109 11.05942058563232 112.5 14.37500381469727 L 112.5 100.6249847412109 C 112.5 103.9405670166016 111.5823822021484 107.0282669067383 109.9161682128906 109.3193206787109 C 108.4244689941406 111.3704223632813 106.5171203613281 112.5 104.5454635620117 112.5 Z" stroke="none"/>
        <path d="M 10.45458221435547 5.000007629394531 C 8.901962280273438 5.000007629394531 7.689956665039063 6.347740173339844 7.105682373046875 7.151100158691406 C 5.767501831054688 8.991127014160156 5 11.62412261962891 5 14.37500762939453 L 5 100.6249847412109 C 5 103.375862121582 5.767501831054688 106.0088653564453 7.105682373046875 107.8488845825195 C 7.689956665039063 108.6522674560547 8.901962280273438 110 10.45458221435547 110 L 104.5454559326172 110 C 106.0980606079102 110 107.3100433349609 108.6522674560547 107.8943176269531 107.8488845825195 C 109.2324981689453 106.0088806152344 110 103.375862121582 110 100.6249847412109 L 110 14.37500762939453 C 109.9999771118164 11.62412261962891 109.2324829101563 8.991104125976563 107.8943023681641 7.151100158691406 C 107.3100433349609 6.347724914550781 106.0980377197266 5.000007629394531 104.5454406738281 5.000007629394531 L 10.45458221435547 5.000007629394531 M 10.45458221435547 7.62939453125e-06 L 104.5454406738281 7.62939453125e-06 C 110.3195190429688 7.62939453125e-06 114.9999618530273 6.435646057128906 115 14.37498474121094 L 115 100.6249847412109 C 115 108.564323425293 110.3195190429688 115 104.5454559326172 115 L 10.45458221435547 115 C 4.680496215820313 115 0 108.564323425293 0 100.6249847412109 L 0 14.37500762939453 C 0 6.435646057128906 4.680496215820313 7.62939453125e-06 10.45458221435547 7.62939453125e-06 Z" stroke="none" fill="#08a8ef"/>
      </g>
      <g id="Trazado_1704" data-name="Trazado 1704" transform="translate(230.061 230) rotate(180)" fill="#fff">
        <path d="M 105.4970626831055 227.5 L 9.502909660339355 227.5 C 7.748503684997559 227.5 6.06047248840332 226.5804748535156 4.749753952026367 224.9107818603516 C 3.298972606658936 223.0627136230469 2.500003814697266 220.5709991455078 2.500003814697266 217.8946533203125 L 2.500003814697266 12.10531234741211 C 2.500003814697266 9.42896842956543 3.298972606658936 6.937250137329102 4.749753952026367 5.089187622070313 C 6.06047248840332 3.419531345367432 7.748503684997559 2.5 9.502909660339355 2.5 L 105.4970626831055 2.5 C 107.2514724731445 2.5 108.9395370483398 3.419531345367432 110.2502517700195 5.089187622070313 C 111.7010345458984 6.937250137329102 112.5 9.42896842956543 112.5 12.10531234741211 L 112.5 217.8946533203125 C 112.5 220.5709991455078 111.7010345458984 223.0627136230469 110.2502517700195 224.9107818603516 C 108.9395370483398 226.5804748535156 107.2514724731445 227.5 105.4970626831055 227.5 Z" stroke="none"/>
        <path d="M 9.502906799316406 5 C 8.193572998046875 5 7.194938659667969 6.0230712890625 6.716201782226563 6.632904052734375 C 5.625534057617188 8.022262573242188 5.000007629394531 10.01686096191406 5.000007629394531 12.10530090332031 L 5.000007629394531 217.8946380615234 C 5.000007629394531 219.9830932617188 5.625534057617188 221.9777374267578 6.716201782226563 223.3670959472656 C 7.194938659667969 223.9769287109375 8.193572998046875 225 9.502906799316406 225 L 105.4970703125 225 C 106.8064346313477 225 107.8050689697266 223.9769287109375 108.283805847168 223.3670654296875 C 109.3744735717773 221.9777374267578 110 219.9830932617188 110 217.8946380615234 L 110 12.10530090332031 C 110 10.01686096191406 109.3744735717773 8.022262573242188 108.283805847168 6.632904052734375 C 107.8050689697266 6.0230712890625 106.8064346313477 5 105.4970703125 5 L 9.502906799316406 5 M 9.502906799316406 0 L 105.4970703125 0 C 110.7455673217773 0 115 5.419540405273438 115 12.10530090332031 L 115 217.8946380615234 C 115 224.5804290771484 110.7455673217773 230 105.4970703125 230 L 9.502906799316406 230 C 4.254440307617188 230 7.62939453125e-06 224.5804290771484 7.62939453125e-06 217.8946380615234 L 7.62939453125e-06 12.10530090332031 C 7.62939453125e-06 5.419540405273438 4.254440307617188 0 9.502906799316406 0 Z" stroke="none" fill="#08a8ef"/>
      </g>
      <line id="Línea_1" data-name="Línea 1" x2="58" transform="translate(28.061 84.271)" fill="none" stroke="#08a8ef" stroke-linecap="round" stroke-width="5"/>
      <line id="Línea_4" data-name="Línea 4" x2="58" transform="translate(28.561 199.771)" fill="none" stroke="#08a8ef" stroke-linecap="round" stroke-width="5"/>
      <line id="Línea_7" data-name="Línea 7" x2="58" transform="translate(145.745 199.5)" fill="none" stroke="#08a8ef" stroke-linecap="round" stroke-width="5"/>
      <line id="Línea_3" data-name="Línea 3" x2="58" transform="translate(28.061 100.271)" fill="none" stroke="#08a8ef" stroke-linecap="round" stroke-width="5"/>
      <line id="Línea_6" data-name="Línea 6" x2="58" transform="translate(28.561 215.5)" fill="none" stroke="#08a8ef" stroke-linecap="round" stroke-width="5"/>
      <line id="Línea_9" data-name="Línea 9" x2="58" transform="translate(145.745 215.5)" fill="none" stroke="#08a8ef" stroke-linecap="round" stroke-width="5"/>
      <line id="Línea_2" data-name="Línea 2" x2="78" transform="translate(18.061 92.271)" fill="none" stroke="#08a8ef" stroke-linecap="round" stroke-width="5"/>
      <line id="Línea_5" data-name="Línea 5" x2="78" transform="translate(18.561 207.5)" fill="none" stroke="#08a8ef" stroke-linecap="round" stroke-width="5"/>
      <line id="Línea_8" data-name="Línea 8" x2="78" transform="translate(135.745 207.5)" fill="none" stroke="#08a8ef" stroke-linecap="round" stroke-width="5"/>
      <g id="photo_1_" data-name="photo (1)" transform="translate(24.061 72.799)">
        <path id="Trazado_1709" data-name="Trazado 1709" d="M61.841,61.2H4.193A4.193,4.193,0,0,0,0,65.394v42.974a4.193,4.193,0,0,0,4.193,4.192H61.841a4.193,4.193,0,0,0,4.193-4.193V65.394A4.193,4.193,0,0,0,61.841,61.2Zm0,4.193V95.885l-8.263-7.512a3.143,3.143,0,0,0-4.338.1l-8.362,8.361L24.389,77.143a3.144,3.144,0,0,0-4.794-.032l-15.4,17.9V65.394ZM44.022,76.4a5.765,5.765,0,1,1,5.765,5.765A5.764,5.764,0,0,1,44.022,76.4Z" transform="translate(0 0)" fill="#08a8ef"/>
      </g>
      <g id="photo_1_2" data-name="photo (1)" transform="translate(24.061 -44.201)">
        <path id="Trazado_1709-2" data-name="Trazado 1709" d="M61.841,61.2H4.193A4.193,4.193,0,0,0,0,65.394v42.974a4.193,4.193,0,0,0,4.193,4.192H61.841a4.193,4.193,0,0,0,4.193-4.193V65.394A4.193,4.193,0,0,0,61.841,61.2Zm0,4.193V95.885l-8.263-7.512a3.143,3.143,0,0,0-4.338.1l-8.362,8.361L24.389,77.143a3.144,3.144,0,0,0-4.794-.032l-15.4,17.9V65.394ZM44.022,76.4a5.765,5.765,0,1,1,5.765,5.765A5.764,5.764,0,0,1,44.022,76.4Z" transform="translate(0 0)" fill="#08a8ef"/>
      </g>
      <g id="photo_1_3" data-name="photo (1)" transform="translate(139.061 25.799)">
        <path id="Trazado_1709-3" data-name="Trazado 1709" d="M61.841,61.2H4.193A4.193,4.193,0,0,0,0,65.394v42.974a4.193,4.193,0,0,0,4.193,4.192H61.841a4.193,4.193,0,0,0,4.193-4.193V65.394A4.193,4.193,0,0,0,61.841,61.2Zm0,4.193V95.885l-8.263-7.512a3.143,3.143,0,0,0-4.338.1l-8.362,8.361L24.389,77.143a3.144,3.144,0,0,0-4.794-.032l-15.4,17.9V65.394ZM44.022,76.4a5.765,5.765,0,1,1,5.765,5.765A5.764,5.764,0,0,1,44.022,76.4Z" transform="translate(0 0)" fill="#08a8ef"/>
      </g>
    </g>
  </g>
</svg>
