<svg xmlns="http://www.w3.org/2000/svg" width="230" height="115" viewBox="0 0 230 115">
  <g id="Grupo_129" data-name="Grupo 129" transform="translate(-1943 -302)">
    <g id="Grupo_126" data-name="Grupo 126" transform="translate(1942.939 301.741)">
      <g id="Grupo_96" data-name="Grupo 96" transform="translate(0.061 0.259)">
        <g id="Trazado_1703" data-name="Trazado 1703" transform="translate(115 115) rotate(180)" fill="#fff">
          <path d="M 104.5454635620117 112.5 L 10.45456695556641 112.5 C 8.482916831970215 112.5 6.575550079345703 111.3704223632813 5.083849906921387 109.3193206787109 C 3.417633295059204 107.0282669067383 2.5 103.9405517578125 2.5 100.6249847412109 L 2.5 14.37500381469727 C 2.5 11.05942058563232 3.417633295059204 7.971720695495605 5.083849906921387 5.680686950683594 C 6.575550079345703 3.629587173461914 8.482916831970215 2.500003814697266 10.45456695556641 2.500003814697266 L 104.5454330444336 2.500003814697266 C 106.5170974731445 2.500003814697266 108.4244537353516 3.629587173461914 109.9161529541016 5.680670261383057 C 111.5823516845703 7.971704006195068 112.4999847412109 11.05942058563232 112.5 14.37500381469727 L 112.5 100.6249847412109 C 112.5 103.9405670166016 111.5823822021484 107.0282669067383 109.9161682128906 109.3193206787109 C 108.4244689941406 111.3704223632813 106.5171203613281 112.5 104.5454635620117 112.5 Z" stroke="none"/>
          <path d="M 10.45458221435547 5.000007629394531 C 8.901962280273438 5.000007629394531 7.689956665039063 6.347740173339844 7.105682373046875 7.151100158691406 C 5.767501831054688 8.991127014160156 5 11.62412261962891 5 14.37500762939453 L 5 100.6249847412109 C 5 103.375862121582 5.767501831054688 106.0088653564453 7.105682373046875 107.8488845825195 C 7.689956665039063 108.6522674560547 8.901962280273438 110 10.45458221435547 110 L 104.5454559326172 110 C 106.0980606079102 110 107.3100433349609 108.6522674560547 107.8943176269531 107.8488845825195 C 109.2324981689453 106.0088806152344 110 103.375862121582 110 100.6249847412109 L 110 14.37500762939453 C 109.9999771118164 11.62412261962891 109.2324829101563 8.991104125976563 107.8943023681641 7.151100158691406 C 107.3100433349609 6.347724914550781 106.0980377197266 5.000007629394531 104.5454406738281 5.000007629394531 L 10.45458221435547 5.000007629394531 M 10.45458221435547 7.62939453125e-06 L 104.5454406738281 7.62939453125e-06 C 110.3195190429688 7.62939453125e-06 114.9999618530273 6.435646057128906 115 14.37498474121094 L 115 100.6249847412109 C 115 108.564323425293 110.3195190429688 115 104.5454559326172 115 L 10.45458221435547 115 C 4.680496215820313 115 0 108.564323425293 0 100.6249847412109 L 0 14.37500762939453 C 0 6.435646057128906 4.680496215820313 7.62939453125e-06 10.45458221435547 7.62939453125e-06 Z" stroke="none" fill="#08a8ef"/>
        </g>
      </g>
      <g id="photo_1_" data-name="photo (1)" transform="translate(24.061 -28.942)">
        <path id="Trazado_1709" data-name="Trazado 1709" d="M61.841,61.2H4.193A4.193,4.193,0,0,0,0,65.394v42.974a4.193,4.193,0,0,0,4.193,4.192H61.841a4.193,4.193,0,0,0,4.193-4.193V65.394A4.193,4.193,0,0,0,61.841,61.2Zm0,4.193V95.885l-8.263-7.512a3.143,3.143,0,0,0-4.338.1l-8.362,8.361L24.389,77.143a3.144,3.144,0,0,0-4.794-.032l-15.4,17.9V65.394ZM44.022,76.4a5.765,5.765,0,1,1,5.765,5.765A5.764,5.764,0,0,1,44.022,76.4Z" transform="translate(0 0)" fill="#08a8ef"/>
      </g>
    </g>
    <g id="Grupo_127" data-name="Grupo 127" transform="translate(2057.939 301.741)">
      <g id="Grupo_96-2" data-name="Grupo 96" transform="translate(0.061 0.259)">
        <g id="Trazado_1703-2" data-name="Trazado 1703" transform="translate(115 115) rotate(180)" fill="#fff">
          <path d="M 104.5454635620117 112.5 L 10.45456695556641 112.5 C 8.482916831970215 112.5 6.575550079345703 111.3704223632813 5.083849906921387 109.3193206787109 C 3.417633295059204 107.0282669067383 2.5 103.9405517578125 2.5 100.6249847412109 L 2.5 14.37500381469727 C 2.5 11.05942058563232 3.417633295059204 7.971720695495605 5.083849906921387 5.680686950683594 C 6.575550079345703 3.629587173461914 8.482916831970215 2.500003814697266 10.45456695556641 2.500003814697266 L 104.5454330444336 2.500003814697266 C 106.5170974731445 2.500003814697266 108.4244537353516 3.629587173461914 109.9161529541016 5.680670261383057 C 111.5823516845703 7.971704006195068 112.4999847412109 11.05942058563232 112.5 14.37500381469727 L 112.5 100.6249847412109 C 112.5 103.9405670166016 111.5823822021484 107.0282669067383 109.9161682128906 109.3193206787109 C 108.4244689941406 111.3704223632813 106.5171203613281 112.5 104.5454635620117 112.5 Z" stroke="none"/>
          <path d="M 10.45458221435547 5.000007629394531 C 8.901962280273438 5.000007629394531 7.689956665039063 6.347740173339844 7.105682373046875 7.151100158691406 C 5.767501831054688 8.991127014160156 5 11.62412261962891 5 14.37500762939453 L 5 100.6249847412109 C 5 103.375862121582 5.767501831054688 106.0088653564453 7.105682373046875 107.8488845825195 C 7.689956665039063 108.6522674560547 8.901962280273438 110 10.45458221435547 110 L 104.5454559326172 110 C 106.0980606079102 110 107.3100433349609 108.6522674560547 107.8943176269531 107.8488845825195 C 109.2324981689453 106.0088806152344 110 103.375862121582 110 100.6249847412109 L 110 14.37500762939453 C 109.9999771118164 11.62412261962891 109.2324829101563 8.991104125976563 107.8943023681641 7.151100158691406 C 107.3100433349609 6.347724914550781 106.0980377197266 5.000007629394531 104.5454406738281 5.000007629394531 L 10.45458221435547 5.000007629394531 M 10.45458221435547 7.62939453125e-06 L 104.5454406738281 7.62939453125e-06 C 110.3195190429688 7.62939453125e-06 114.9999618530273 6.435646057128906 115 14.37498474121094 L 115 100.6249847412109 C 115 108.564323425293 110.3195190429688 115 104.5454559326172 115 L 10.45458221435547 115 C 4.680496215820313 115 0 108.564323425293 0 100.6249847412109 L 0 14.37500762939453 C 0 6.435646057128906 4.680496215820313 7.62939453125e-06 10.45458221435547 7.62939453125e-06 Z" stroke="none" fill="#08a8ef"/>
        </g>
      </g>
      <g id="photo_1_2" data-name="photo (1)" transform="translate(24.061 -28.942)">
        <path id="Trazado_1709-2" data-name="Trazado 1709" d="M61.841,61.2H4.193A4.193,4.193,0,0,0,0,65.394v42.974a4.193,4.193,0,0,0,4.193,4.192H61.841a4.193,4.193,0,0,0,4.193-4.193V65.394A4.193,4.193,0,0,0,61.841,61.2Zm0,4.193V95.885l-8.263-7.512a3.143,3.143,0,0,0-4.338.1l-8.362,8.361L24.389,77.143a3.144,3.144,0,0,0-4.794-.032l-15.4,17.9V65.394ZM44.022,76.4a5.765,5.765,0,1,1,5.765,5.765A5.764,5.764,0,0,1,44.022,76.4Z" transform="translate(0 0)" fill="#08a8ef"/>
      </g>
    </g>
    <line id="Línea_14" data-name="Línea 14" x2="76" transform="translate(2077.5 403.271)" fill="none" stroke="#08a8ef" stroke-linecap="round" stroke-width="5"/>
    <line id="Línea_15" data-name="Línea 15" x2="76" transform="translate(1962.5 403.271)" fill="none" stroke="#08a8ef" stroke-linecap="round" stroke-width="5"/>
  </g>
</svg>
