<svg xmlns="http://www.w3.org/2000/svg" width="230" height="115" viewBox="0 0 230 115">
  <g id="Grupo_100" data-name="Grupo 100" transform="translate(-2859.984 -231)">
    <g id="Grupo_93" data-name="Grupo 93" transform="translate(2838.984 210.741)">
      <g id="Grupo_96" data-name="Grupo 96" transform="translate(21 20.259)">
        <g id="Trazado_1703" data-name="Trazado 1703" transform="translate(115 115) rotate(180)" fill="#fff">
          <path d="M 104.5454711914063 112.5 L -104.5454025268555 112.5 C -106.5170593261719 112.5 -108.4244384765625 111.3704071044922 -109.9161529541016 109.3193130493164 C -111.5823745727539 107.0282516479492 -112.5 103.9405670166016 -112.5 100.625 L -112.5 14.37500381469727 C -112.5 11.05944156646729 -111.5823745727539 7.971722602844238 -109.9161529541016 5.680691242218018 C -108.4244384765625 3.629597663879395 -106.5170593261719 2.500003814697266 -104.5454025268555 2.500003814697266 L 104.5454406738281 2.500003814697266 C 106.5170974731445 2.500003814697266 108.4244384765625 3.629597663879395 109.9161529541016 5.680691242218018 C 111.5823440551758 7.971722602844238 112.5 11.05941009521484 112.5 14.37500381469727 L 112.5 100.625 C 112.5 103.9405670166016 111.5823745727539 107.0282821655273 109.9161529541016 109.3193130493164 C 108.4244689941406 111.3704071044922 106.5171279907227 112.5 104.5454711914063 112.5 Z" stroke="none"/>
          <path d="M -104.5454330444336 5.000007629394531 C -106.098030090332 5.000007629394531 -107.3100357055664 6.347740173339844 -107.8943328857422 7.151100158691406 C -109.2324981689453 8.991104125976563 -110 11.62413787841797 -110 14.37500762939453 L -110 100.625 C -110 103.3758697509766 -109.2324981689453 106.0088729858398 -107.8943023681641 107.8489074707031 C -107.3100357055664 108.6522674560547 -106.098030090332 110 -104.5454330444336 110 L 104.5454635620117 110 C 106.0980682373047 110 107.3100662231445 108.6522674560547 107.8943328857422 107.8489074707031 C 109.2324981689453 106.008903503418 110 103.3758697509766 110 100.625 L 110 14.37500762939453 C 110 11.62410736083984 109.2324981689453 8.991104125976563 107.8943023681641 7.151100158691406 C 107.3100357055664 6.347740173339844 106.0980682373047 5.000007629394531 104.5454330444336 5.000007629394531 L -104.5454330444336 5.000007629394531 M -104.5454330444336 7.62939453125e-06 L 104.5454330444336 7.62939453125e-06 C 110.3195343017578 7.62939453125e-06 114.9999694824219 6.435638427734375 115 14.37496948242188 L 115 100.625 C 115 108.564338684082 110.3195343017578 115 104.5454635620117 115 L -104.5454330444336 115 C -110.3195037841797 115 -115 108.564338684082 -115 100.625 L -115 14.37500762939453 C -115 6.435638427734375 -110.3195037841797 7.62939453125e-06 -104.5454330444336 7.62939453125e-06 Z" stroke="none" fill="#08a8ef"/>
        </g>
      </g>
    </g>
    <g id="Grupo_101" data-name="Grupo 101" transform="translate(2907.732 252.759)">
      <g id="Grupo_96-2" data-name="Grupo 96" transform="translate(21 20.259)">
        <g id="Trazado_1703-2" data-name="Trazado 1703" transform="translate(92.504 30.965) rotate(180)" fill="#08a8ef">
          <path d="M 88.29917144775391 28.46482467651367 L 4.204741477966309 28.46482467651367 C 3.280670166015625 28.46482467651367 2.499998807907104 27.8371524810791 2.499998807907104 27.09420967102051 L 2.499998807907104 3.870609521865845 C 2.499998807907104 3.127666711807251 3.280670166015625 2.499995231628418 4.204741477966309 2.499995231628418 L 88.29915618896484 2.499995231628418 C 89.22321319580078 2.499995231628418 90.00388336181641 3.127652406692505 90.00388336181641 3.870595216751099 L 90.00388336181641 27.09420967102051 C 90.00388336181641 27.8371524810791 89.22322845458984 28.46482467651367 88.29917144775391 28.46482467651367 Z" stroke="none"/>
          <path d="M 4.999992370605469 4.999992370605469 L 4.999992370605469 25.9648265838623 L 87.50387573242188 25.9648265838623 L 87.50387573242188 4.999992370605469 L 4.999992370605469 4.999992370605469 M 4.204727172851563 -7.62939453125e-06 L 88.29914093017578 -7.62939453125e-06 C 90.62144470214844 -7.62939453125e-06 92.50387573242188 1.732858657836914 92.50387573242188 3.87059211730957 L 92.50387573242188 27.09420967102051 C 92.50387573242188 29.23196029663086 90.62144470214844 30.9648265838623 88.29915618896484 30.9648265838623 L 4.204727172851563 30.9648265838623 C 1.882461547851563 30.9648265838623 -7.62939453125e-06 29.23196029663086 -7.62939453125e-06 27.09420967102051 L -7.62939453125e-06 3.870609283447266 C -7.62939453125e-06 1.732858657836914 1.882461547851563 -7.62939453125e-06 4.204727172851563 -7.62939453125e-06 Z" stroke="none" fill="#08a8ef"/>
        </g>
      </g>
    </g>
  </g>
</svg>
