<svg xmlns="http://www.w3.org/2000/svg" width="230" height="82.259" viewBox="0 0 230 82.259">
  <g id="Grupo_120" data-name="Grupo 120" transform="translate(-1943 -42.741)">
    <g id="Grupo_115" data-name="Grupo 115" transform="translate(313 -401)">
      <g id="Trazado_1710" data-name="Trazado 1710" transform="translate(1743 558.741) rotate(180)" fill="#fff">
        <path d="M 102.9122924804688 112.5 L 68.08774566650391 112.5 C 66.23130035400391 112.5 64.42477416992188 111.3826141357422 63.0009651184082 109.3536758422852 C 61.38818740844727 107.0554885864258 60.5 103.9555740356445 60.5 100.6249923706055 L 60.5 64.375 C 60.5 61.04441070556641 61.38818740844727 57.94451141357422 63.0009651184082 55.64632034301758 C 64.42477416992188 53.61738967895508 66.23130035400391 52.5 68.08774566650391 52.5 L 102.9122695922852 52.5 C 104.7687149047852 52.5 106.5752334594727 53.61737823486328 107.9990310668945 55.64631271362305 C 109.6117858886719 57.94448852539063 110.4999923706055 61.04439926147461 110.5 64.37500762939453 L 110.5 100.6249923706055 C 110.5 103.9555892944336 109.6118087768555 107.0554962158203 107.9990539550781 109.3536911010742 C 106.5752410888672 111.3826217651367 104.7687301635742 112.5 102.9122924804688 112.5 Z" stroke="none"/>
        <path d="M 68.08774566650391 55 C 66.66254425048828 55 65.48673248291016 56.45626831054688 65.04734802246094 57.08238983154297 C 63.74622344970703 58.93647766113281 63 61.59453582763672 63 64.375 L 63 100.6249847412109 C 63 103.4054565429688 63.74622344970703 106.0635223388672 65.04736328125 107.9176177978516 C 65.48673248291016 108.5437164306641 66.66254425048828 110 68.08774566650391 110 L 102.9122924804688 110 C 104.3374786376953 110 105.5132904052734 108.5437316894531 105.9526672363281 107.9176254272461 C 107.2537689208984 106.0635375976563 108 103.4054718017578 108 100.6249847412109 L 108 64.37501525878906 C 107.9999847412109 61.59452056884766 107.2537612915039 58.93645477294922 105.9526519775391 57.08237457275391 C 105.5132827758789 56.45626831054688 104.3374633789063 55 102.9122695922852 55 L 68.08774566650391 55 M 68.08774566650391 50 L 102.9122695922852 50 C 108.4837646484375 50 112.9999694824219 56.43565368652344 113 64.375 L 113 100.6249847412109 C 113 108.5643463134766 108.4837646484375 115 102.9122924804688 115 L 68.08774566650391 115 C 62.51628112792969 115 58 108.5643157958984 58 100.6249847412109 L 58 64.375 C 58 56.4356689453125 62.51628112792969 50 68.08774566650391 50 Z" stroke="none" fill="#08a8ef"/>
      </g>
      <line id="Línea_12" data-name="Línea 12" x2="31.974" transform="translate(1642.013 523.5)" fill="none" stroke="#08a8ef" stroke-linecap="round" stroke-width="5"/>
      <line id="Línea_13" data-name="Línea 13" x2="43" transform="translate(1636.5 515.5)" fill="none" stroke="#08a8ef" stroke-linecap="round" stroke-width="5"/>
      <g id="photo_1_" data-name="photo (1)" transform="translate(1640 401.799)">
        <path id="Trazado_1709" data-name="Trazado 1709" d="M33.107,61.2H2.245A2.245,2.245,0,0,0,0,63.446V86.452A2.245,2.245,0,0,0,2.245,88.7H33.107a2.245,2.245,0,0,0,2.245-2.245V63.446A2.245,2.245,0,0,0,33.107,61.2Zm0,2.245V79.769l-4.423-4.022a1.683,1.683,0,0,0-2.322.056L21.884,80.28,13.057,69.736a1.683,1.683,0,0,0-2.567-.017L2.245,79.3V63.446Zm-9.539,5.892a3.086,3.086,0,1,1,3.086,3.086A3.086,3.086,0,0,1,23.568,69.337Z" transform="translate(0 0)" fill="#08a8ef"/>
      </g>
    </g>
    <g id="Grupo_117" data-name="Grupo 117" transform="translate(371 -401)">
      <g id="Trazado_1710-2" data-name="Trazado 1710" transform="translate(1743 558.741) rotate(180)" fill="#fff">
        <path d="M 102.9122924804688 112.5 L 68.08774566650391 112.5 C 66.23130035400391 112.5 64.42477416992188 111.3826141357422 63.0009651184082 109.3536758422852 C 61.38818740844727 107.0554885864258 60.5 103.9555740356445 60.5 100.6249923706055 L 60.5 64.375 C 60.5 61.04441070556641 61.38818740844727 57.94451141357422 63.0009651184082 55.64632034301758 C 64.42477416992188 53.61738967895508 66.23130035400391 52.5 68.08774566650391 52.5 L 102.9122695922852 52.5 C 104.7687149047852 52.5 106.5752334594727 53.61737823486328 107.9990310668945 55.64631271362305 C 109.6117858886719 57.94448852539063 110.4999923706055 61.04439926147461 110.5 64.37500762939453 L 110.5 100.6249923706055 C 110.5 103.9555892944336 109.6118087768555 107.0554962158203 107.9990539550781 109.3536911010742 C 106.5752410888672 111.3826217651367 104.7687301635742 112.5 102.9122924804688 112.5 Z" stroke="none"/>
        <path d="M 68.08774566650391 55 C 66.66254425048828 55 65.48673248291016 56.45626831054688 65.04734802246094 57.08238983154297 C 63.74622344970703 58.93647766113281 63 61.59453582763672 63 64.375 L 63 100.6249847412109 C 63 103.4054565429688 63.74622344970703 106.0635223388672 65.04736328125 107.9176177978516 C 65.48673248291016 108.5437164306641 66.66254425048828 110 68.08774566650391 110 L 102.9122924804688 110 C 104.3374786376953 110 105.5132904052734 108.5437316894531 105.9526672363281 107.9176254272461 C 107.2537689208984 106.0635375976563 108 103.4054718017578 108 100.6249847412109 L 108 64.37501525878906 C 107.9999847412109 61.59452056884766 107.2537612915039 58.93645477294922 105.9526519775391 57.08237457275391 C 105.5132827758789 56.45626831054688 104.3374633789063 55 102.9122695922852 55 L 68.08774566650391 55 M 68.08774566650391 50 L 102.9122695922852 50 C 108.4837646484375 50 112.9999694824219 56.43565368652344 113 64.375 L 113 100.6249847412109 C 113 108.5643463134766 108.4837646484375 115 102.9122924804688 115 L 68.08774566650391 115 C 62.51628112792969 115 58 108.5643157958984 58 100.6249847412109 L 58 64.375 C 58 56.4356689453125 62.51628112792969 50 68.08774566650391 50 Z" stroke="none" fill="#08a8ef"/>
      </g>
      <line id="Línea_12-2" data-name="Línea 12" x2="31.974" transform="translate(1642.013 523.5)" fill="none" stroke="#08a8ef" stroke-linecap="round" stroke-width="5"/>
      <line id="Línea_13-2" data-name="Línea 13" x2="43" transform="translate(1636.5 515.5)" fill="none" stroke="#08a8ef" stroke-linecap="round" stroke-width="5"/>
      <g id="photo_1_2" data-name="photo (1)" transform="translate(1640 401.799)">
        <path id="Trazado_1709-2" data-name="Trazado 1709" d="M33.107,61.2H2.245A2.245,2.245,0,0,0,0,63.446V86.452A2.245,2.245,0,0,0,2.245,88.7H33.107a2.245,2.245,0,0,0,2.245-2.245V63.446A2.245,2.245,0,0,0,33.107,61.2Zm0,2.245V79.769l-4.423-4.022a1.683,1.683,0,0,0-2.322.056L21.884,80.28,13.057,69.736a1.683,1.683,0,0,0-2.567-.017L2.245,79.3V63.446Zm-9.539,5.892a3.086,3.086,0,1,1,3.086,3.086A3.086,3.086,0,0,1,23.568,69.337Z" transform="translate(0 0)" fill="#08a8ef"/>
      </g>
    </g>
    <g id="Grupo_118" data-name="Grupo 118" transform="translate(429 -401)">
      <g id="Trazado_1710-3" data-name="Trazado 1710" transform="translate(1743 558.741) rotate(180)" fill="#fff">
        <path d="M 102.9122924804688 112.5 L 68.08774566650391 112.5 C 66.23130035400391 112.5 64.42477416992188 111.3826141357422 63.0009651184082 109.3536758422852 C 61.38818740844727 107.0554885864258 60.5 103.9555740356445 60.5 100.6249923706055 L 60.5 64.375 C 60.5 61.04441070556641 61.38818740844727 57.94451141357422 63.0009651184082 55.64632034301758 C 64.42477416992188 53.61738967895508 66.23130035400391 52.5 68.08774566650391 52.5 L 102.9122695922852 52.5 C 104.7687149047852 52.5 106.5752334594727 53.61737823486328 107.9990310668945 55.64631271362305 C 109.6117858886719 57.94448852539063 110.4999923706055 61.04439926147461 110.5 64.37500762939453 L 110.5 100.6249923706055 C 110.5 103.9555892944336 109.6118087768555 107.0554962158203 107.9990539550781 109.3536911010742 C 106.5752410888672 111.3826217651367 104.7687301635742 112.5 102.9122924804688 112.5 Z" stroke="none"/>
        <path d="M 68.08774566650391 55 C 66.66254425048828 55 65.48673248291016 56.45626831054688 65.04734802246094 57.08238983154297 C 63.74622344970703 58.93647766113281 63 61.59453582763672 63 64.375 L 63 100.6249847412109 C 63 103.4054565429688 63.74622344970703 106.0635223388672 65.04736328125 107.9176177978516 C 65.48673248291016 108.5437164306641 66.66254425048828 110 68.08774566650391 110 L 102.9122924804688 110 C 104.3374786376953 110 105.5132904052734 108.5437316894531 105.9526672363281 107.9176254272461 C 107.2537689208984 106.0635375976563 108 103.4054718017578 108 100.6249847412109 L 108 64.37501525878906 C 107.9999847412109 61.59452056884766 107.2537612915039 58.93645477294922 105.9526519775391 57.08237457275391 C 105.5132827758789 56.45626831054688 104.3374633789063 55 102.9122695922852 55 L 68.08774566650391 55 M 68.08774566650391 50 L 102.9122695922852 50 C 108.4837646484375 50 112.9999694824219 56.43565368652344 113 64.375 L 113 100.6249847412109 C 113 108.5643463134766 108.4837646484375 115 102.9122924804688 115 L 68.08774566650391 115 C 62.51628112792969 115 58 108.5643157958984 58 100.6249847412109 L 58 64.375 C 58 56.4356689453125 62.51628112792969 50 68.08774566650391 50 Z" stroke="none" fill="#08a8ef"/>
      </g>
      <line id="Línea_12-3" data-name="Línea 12" x2="31.974" transform="translate(1642.013 523.5)" fill="none" stroke="#08a8ef" stroke-linecap="round" stroke-width="5"/>
      <line id="Línea_13-3" data-name="Línea 13" x2="43" transform="translate(1636.5 515.5)" fill="none" stroke="#08a8ef" stroke-linecap="round" stroke-width="5"/>
      <g id="photo_1_3" data-name="photo (1)" transform="translate(1640 401.799)">
        <path id="Trazado_1709-3" data-name="Trazado 1709" d="M33.107,61.2H2.245A2.245,2.245,0,0,0,0,63.446V86.452A2.245,2.245,0,0,0,2.245,88.7H33.107a2.245,2.245,0,0,0,2.245-2.245V63.446A2.245,2.245,0,0,0,33.107,61.2Zm0,2.245V79.769l-4.423-4.022a1.683,1.683,0,0,0-2.322.056L21.884,80.28,13.057,69.736a1.683,1.683,0,0,0-2.567-.017L2.245,79.3V63.446Zm-9.539,5.892a3.086,3.086,0,1,1,3.086,3.086A3.086,3.086,0,0,1,23.568,69.337Z" transform="translate(0 0)" fill="#08a8ef"/>
      </g>
    </g>
    <g id="Grupo_119" data-name="Grupo 119" transform="translate(488 -401)">
      <g id="Trazado_1710-4" data-name="Trazado 1710" transform="translate(1743 558.741) rotate(180)" fill="#fff">
        <path d="M 102.9122924804688 112.5 L 68.08774566650391 112.5 C 66.23130035400391 112.5 64.42477416992188 111.3826141357422 63.0009651184082 109.3536758422852 C 61.38818740844727 107.0554885864258 60.5 103.9555740356445 60.5 100.6249923706055 L 60.5 64.375 C 60.5 61.04441070556641 61.38818740844727 57.94451141357422 63.0009651184082 55.64632034301758 C 64.42477416992188 53.61738967895508 66.23130035400391 52.5 68.08774566650391 52.5 L 102.9122695922852 52.5 C 104.7687149047852 52.5 106.5752334594727 53.61737823486328 107.9990310668945 55.64631271362305 C 109.6117858886719 57.94448852539063 110.4999923706055 61.04439926147461 110.5 64.37500762939453 L 110.5 100.6249923706055 C 110.5 103.9555892944336 109.6118087768555 107.0554962158203 107.9990539550781 109.3536911010742 C 106.5752410888672 111.3826217651367 104.7687301635742 112.5 102.9122924804688 112.5 Z" stroke="none"/>
        <path d="M 68.08774566650391 55 C 66.66254425048828 55 65.48673248291016 56.45626831054688 65.04734802246094 57.08238983154297 C 63.74622344970703 58.93647766113281 63 61.59453582763672 63 64.375 L 63 100.6249847412109 C 63 103.4054565429688 63.74622344970703 106.0635223388672 65.04736328125 107.9176177978516 C 65.48673248291016 108.5437164306641 66.66254425048828 110 68.08774566650391 110 L 102.9122924804688 110 C 104.3374786376953 110 105.5132904052734 108.5437316894531 105.9526672363281 107.9176254272461 C 107.2537689208984 106.0635375976563 108 103.4054718017578 108 100.6249847412109 L 108 64.37501525878906 C 107.9999847412109 61.59452056884766 107.2537612915039 58.93645477294922 105.9526519775391 57.08237457275391 C 105.5132827758789 56.45626831054688 104.3374633789063 55 102.9122695922852 55 L 68.08774566650391 55 M 68.08774566650391 50 L 102.9122695922852 50 C 108.4837646484375 50 112.9999694824219 56.43565368652344 113 64.375 L 113 100.6249847412109 C 113 108.5643463134766 108.4837646484375 115 102.9122924804688 115 L 68.08774566650391 115 C 62.51628112792969 115 58 108.5643157958984 58 100.6249847412109 L 58 64.375 C 58 56.4356689453125 62.51628112792969 50 68.08774566650391 50 Z" stroke="none" fill="#08a8ef"/>
      </g>
      <line id="Línea_12-4" data-name="Línea 12" x2="31.974" transform="translate(1642.013 523.5)" fill="none" stroke="#08a8ef" stroke-linecap="round" stroke-width="5"/>
      <line id="Línea_13-4" data-name="Línea 13" x2="43" transform="translate(1636.5 515.5)" fill="none" stroke="#08a8ef" stroke-linecap="round" stroke-width="5"/>
      <g id="photo_1_4" data-name="photo (1)" transform="translate(1640 401.799)">
        <path id="Trazado_1709-4" data-name="Trazado 1709" d="M33.107,61.2H2.245A2.245,2.245,0,0,0,0,63.446V86.452A2.245,2.245,0,0,0,2.245,88.7H33.107a2.245,2.245,0,0,0,2.245-2.245V63.446A2.245,2.245,0,0,0,33.107,61.2Zm0,2.245V79.769l-4.423-4.022a1.683,1.683,0,0,0-2.322.056L21.884,80.28,13.057,69.736a1.683,1.683,0,0,0-2.567-.017L2.245,79.3V63.446Zm-9.539,5.892a3.086,3.086,0,1,1,3.086,3.086A3.086,3.086,0,0,1,23.568,69.337Z" transform="translate(0 0)" fill="#08a8ef"/>
      </g>
    </g>
  </g>
</svg>
