<svg xmlns="http://www.w3.org/2000/svg" width="229.939" height="115.259" viewBox="0 0 229.939 115.259">
  <g id="Grupo_95" data-name="Grupo 95" transform="translate(-2955 -210.741)">
    <g id="Grupo_93" data-name="Grupo 93" transform="translate(2954.939 210.741)">
      <g id="Grupo_97" data-name="Grupo 97" transform="translate(114)">
        <g id="Trazado_1708" data-name="Trazado 1708" transform="translate(116 115) rotate(180)" fill="#fff">
          <path d="M 47.54546737670898 112.5 L 10.45458316802979 112.5 C 8.482916831970215 112.5 6.57556676864624 111.3704147338867 5.083849906921387 109.3193130493164 C 3.417633295059204 107.0282669067383 2.5 103.9405670166016 2.5 100.625 L 2.5 14.375 C 2.5 11.05943298339844 3.417633295059204 7.971733570098877 5.083849906921387 5.680683135986328 C 6.57556676864624 3.629583358764648 8.482916831970215 2.5 10.45458316802979 2.5 L 47.54543304443359 2.5 C 49.5171012878418 2.5 51.4244499206543 3.629583358764648 52.9161491394043 5.680666446685791 C 54.58235168457031 7.97171688079834 55.49998474121094 11.05941677093506 55.5 14.37501621246338 L 55.5 100.625 C 55.5 103.9405822753906 54.58238220214844 107.0282821655273 52.91616821289063 109.3193359375 C 51.42446517944336 111.3704147338867 49.51711654663086 112.5 47.54546737670898 112.5 Z" stroke="none"/>
          <path d="M 10.4545783996582 5 C 8.901958465576172 5 7.689960479736328 6.347740173339844 7.105678558349609 7.151123046875 C 5.767501831054688 8.991119384765625 5 11.62412261962891 5 14.375 L 5 100.6249771118164 C 5 103.375862121582 5.767501831054688 106.0088577270508 7.105678558349609 107.848876953125 C 7.689960479736328 108.6522598266602 8.901958465576172 110 10.4545783996582 110 L 47.54545974731445 110 C 49.09806060791016 110 50.31005859375 108.6522598266602 50.89432144165039 107.8488998413086 C 52.23249816894531 106.0088806152344 53 103.375862121582 53 100.6249771118164 L 53 14.37502288818359 C 52.99998092651367 11.62413787841797 52.23247909545898 8.991119384765625 50.8942985534668 7.151100158691406 C 50.31003952026367 6.347740173339844 49.09803771972656 5 47.54544067382813 5 L 10.4545783996582 5 M 10.4545783996582 0 L 47.54544067382813 0 C 53.31951904296875 0 57.99996185302734 6.435661315917969 58 14.375 L 58 100.6249771118164 C 58 108.564338684082 53.31951904296875 115 47.54545974731445 115 L 10.4545783996582 115 C 4.680500030517578 115 0 108.564323425293 0 100.6249771118164 L 0 14.375 C 0 6.435661315917969 4.680500030517578 0 10.4545783996582 0 Z" stroke="none" fill="#08a8ef"/>
        </g>
        <g id="Grupo_98" data-name="Grupo 98">
          <g id="Trazado_1702" data-name="Trazado 1702" transform="translate(58 115) rotate(180)" fill="#fff">
            <path d="M 47.54546737670898 112.5 L 10.45458316802979 112.5 C 8.482916831970215 112.5 6.57556676864624 111.3704147338867 5.083849906921387 109.3193130493164 C 3.417633295059204 107.0282669067383 2.5 103.9405670166016 2.5 100.625 L 2.5 14.375 C 2.5 11.05943298339844 3.417633295059204 7.971733570098877 5.083849906921387 5.680683135986328 C 6.57556676864624 3.629583358764648 8.482916831970215 2.5 10.45458316802979 2.5 L 47.54543304443359 2.5 C 49.5171012878418 2.5 51.4244499206543 3.629583358764648 52.9161491394043 5.680666446685791 C 54.58235168457031 7.97171688079834 55.49998474121094 11.05941677093506 55.5 14.37501621246338 L 55.5 100.625 C 55.5 103.9405822753906 54.58238220214844 107.0282821655273 52.91616821289063 109.3193359375 C 51.42446517944336 111.3704147338867 49.51711654663086 112.5 47.54546737670898 112.5 Z" stroke="none"/>
            <path d="M 10.4545783996582 5 C 8.901958465576172 5 7.689960479736328 6.347740173339844 7.105678558349609 7.151123046875 C 5.767501831054688 8.991119384765625 5 11.62412261962891 5 14.375 L 5 100.6249771118164 C 5 103.375862121582 5.767501831054688 106.0088577270508 7.105678558349609 107.848876953125 C 7.689960479736328 108.6522598266602 8.901958465576172 110 10.4545783996582 110 L 47.54545974731445 110 C 49.09806060791016 110 50.31005859375 108.6522598266602 50.89432144165039 107.8488998413086 C 52.23249816894531 106.0088806152344 53 103.375862121582 53 100.6249771118164 L 53 14.37502288818359 C 52.99998092651367 11.62413787841797 52.23247909545898 8.991119384765625 50.8942985534668 7.151100158691406 C 50.31003952026367 6.347740173339844 49.09803771972656 5 47.54544067382813 5 L 10.4545783996582 5 M 10.4545783996582 0 L 47.54544067382813 0 C 53.31951904296875 0 57.99996185302734 6.435661315917969 58 14.375 L 58 100.6249771118164 C 58 108.564338684082 53.31951904296875 115 47.54545974731445 115 L 10.4545783996582 115 C 4.680500030517578 115 0 108.564323425293 0 100.6249771118164 L 0 14.375 C 0 6.435661315917969 4.680500030517578 0 10.4545783996582 0 Z" stroke="none" fill="#08a8ef"/>
          </g>
          <line id="Línea_5" data-name="Línea 5" x2="34" transform="translate(11.516 100.759)" fill="none" stroke="#08a8ef" stroke-linecap="round" stroke-width="5"/>
        </g>
        <line id="Línea_10" data-name="Línea 10" x2="34" transform="translate(69.516 100.759)" fill="none" stroke="#08a8ef" stroke-linecap="round" stroke-width="5"/>
      </g>
      <g id="Grupo_121" data-name="Grupo 121">
        <g id="Grupo_96" data-name="Grupo 96" transform="translate(0.061 0.259)">
          <g id="Trazado_1703" data-name="Trazado 1703" transform="translate(115 115) rotate(180)" fill="#fff">
            <path d="M 104.5454635620117 112.5 L 10.45456695556641 112.5 C 8.482916831970215 112.5 6.575550079345703 111.3704223632813 5.083849906921387 109.3193206787109 C 3.417633295059204 107.0282669067383 2.5 103.9405517578125 2.5 100.6249847412109 L 2.5 14.37500381469727 C 2.5 11.05942058563232 3.417633295059204 7.971720695495605 5.083849906921387 5.680686950683594 C 6.575550079345703 3.629587173461914 8.482916831970215 2.500003814697266 10.45456695556641 2.500003814697266 L 104.5454330444336 2.500003814697266 C 106.5170974731445 2.500003814697266 108.4244537353516 3.629587173461914 109.9161529541016 5.680670261383057 C 111.5823516845703 7.971704006195068 112.4999847412109 11.05942058563232 112.5 14.37500381469727 L 112.5 100.6249847412109 C 112.5 103.9405670166016 111.5823822021484 107.0282669067383 109.9161682128906 109.3193206787109 C 108.4244689941406 111.3704223632813 106.5171203613281 112.5 104.5454635620117 112.5 Z" stroke="none"/>
            <path d="M 10.45458221435547 5.000007629394531 C 8.901962280273438 5.000007629394531 7.689956665039063 6.347740173339844 7.105682373046875 7.151100158691406 C 5.767501831054688 8.991127014160156 5 11.62412261962891 5 14.37500762939453 L 5 100.6249847412109 C 5 103.375862121582 5.767501831054688 106.0088653564453 7.105682373046875 107.8488845825195 C 7.689956665039063 108.6522674560547 8.901962280273438 110 10.45458221435547 110 L 104.5454559326172 110 C 106.0980606079102 110 107.3100433349609 108.6522674560547 107.8943176269531 107.8488845825195 C 109.2324981689453 106.0088806152344 110 103.375862121582 110 100.6249847412109 L 110 14.37500762939453 C 109.9999771118164 11.62412261962891 109.2324829101563 8.991104125976563 107.8943023681641 7.151100158691406 C 107.3100433349609 6.347724914550781 106.0980377197266 5.000007629394531 104.5454406738281 5.000007629394531 L 10.45458221435547 5.000007629394531 M 10.45458221435547 7.62939453125e-06 L 104.5454406738281 7.62939453125e-06 C 110.3195190429688 7.62939453125e-06 114.9999618530273 6.435646057128906 115 14.37498474121094 L 115 100.6249847412109 C 115 108.564323425293 110.3195190429688 115 104.5454559326172 115 L 10.45458221435547 115 C 4.680496215820313 115 0 108.564323425293 0 100.6249847412109 L 0 14.37500762939453 C 0 6.435646057128906 4.680496215820313 7.62939453125e-06 10.45458221435547 7.62939453125e-06 Z" stroke="none" fill="#08a8ef"/>
          </g>
          <line id="Línea_2" data-name="Línea 2" x2="78" transform="translate(18.061 100.271)" fill="none" stroke="#08a8ef" stroke-linecap="round" stroke-width="5"/>
        </g>
        <g id="photo_1_" data-name="photo (1)" transform="translate(24.061 -37.942)">
          <path id="Trazado_1709" data-name="Trazado 1709" d="M61.841,61.2H4.193A4.193,4.193,0,0,0,0,65.394v42.974a4.193,4.193,0,0,0,4.193,4.192H61.841a4.193,4.193,0,0,0,4.193-4.193V65.394A4.193,4.193,0,0,0,61.841,61.2Zm0,4.193V95.885l-8.263-7.512a3.143,3.143,0,0,0-4.338.1l-8.362,8.361L24.389,77.143a3.144,3.144,0,0,0-4.794-.032l-15.4,17.9V65.394ZM44.022,76.4a5.765,5.765,0,1,1,5.765,5.765A5.764,5.764,0,0,1,44.022,76.4Z" transform="translate(0 0)" fill="#08a8ef"/>
        </g>
      </g>
      <g id="photo_1_2" data-name="photo (1)" transform="translate(126.061 -24.942)">
        <path id="Trazado_1709-2" data-name="Trazado 1709" d="M30.92,61.2H2.1A2.1,2.1,0,0,0,0,63.3V84.784a2.1,2.1,0,0,0,2.1,2.1H30.92a2.1,2.1,0,0,0,2.1-2.1V63.3A2.1,2.1,0,0,0,30.92,61.2Zm0,2.1V78.543l-4.131-3.756a1.572,1.572,0,0,0-2.169.052l-4.181,4.18-8.244-9.847a1.572,1.572,0,0,0-2.4-.016l-7.7,8.95V63.3Zm-8.909,5.5a2.882,2.882,0,1,1,2.882,2.882A2.882,2.882,0,0,1,22.011,68.8Z" transform="translate(0 0)" fill="#08a8ef"/>
      </g>
      <g id="photo_1_3" data-name="photo (1)" transform="translate(185.061 -24.942)">
        <path id="Trazado_1709-3" data-name="Trazado 1709" d="M30.92,61.2H2.1A2.1,2.1,0,0,0,0,63.3V84.784a2.1,2.1,0,0,0,2.1,2.1H30.92a2.1,2.1,0,0,0,2.1-2.1V63.3A2.1,2.1,0,0,0,30.92,61.2Zm0,2.1V78.543l-4.131-3.756a1.572,1.572,0,0,0-2.169.052l-4.181,4.18-8.244-9.847a1.572,1.572,0,0,0-2.4-.016l-7.7,8.95V63.3Zm-8.909,5.5a2.882,2.882,0,1,1,2.882,2.882A2.882,2.882,0,0,1,22.011,68.8Z" transform="translate(0 0)" fill="#08a8ef"/>
      </g>
    </g>
  </g>
</svg>
