<svg xmlns="http://www.w3.org/2000/svg" width="230" height="115" viewBox="0 0 230 115">
  <g id="Grupo_125" data-name="Grupo 125" transform="translate(-1943 -174)">
    <g id="Grupo_122" data-name="Grupo 122" transform="translate(1942.939 173.741)">
      <g id="Grupo_96" data-name="Grupo 96" transform="translate(0.061 0.259)">
        <g id="Trazado_1703" data-name="Trazado 1703" transform="translate(113 115) rotate(180)" fill="#fff">
          <path d="M 102.7272644042969 112.5 L 10.27274990081787 112.5 C 8.358133316040039 112.5 6.500750064849854 111.3764038085938 5.042766571044922 109.3361892700195 C 3.403033256530762 107.0416717529297 2.5 103.9479675292969 2.5 100.6249847412109 L 2.5 14.37500381469727 C 2.5 11.05202007293701 3.403033256530762 7.958320617675781 5.042766571044922 5.663803577423096 C 6.500750064849854 3.623603820800781 8.358133316040039 2.500003814697266 10.27274990081787 2.500003814697266 L 102.7272491455078 2.500003814697266 C 104.6418685913086 2.500003814697266 106.4992523193359 3.623587131500244 107.9572296142578 5.663803577423096 C 109.5969467163086 7.958303928375244 110.4999847412109 11.05200386047363 110.5 14.37500381469727 L 110.5 100.6249847412109 C 110.5 103.9479675292969 109.5969696044922 107.0416717529297 107.9572525024414 109.3361892700195 C 106.499267578125 111.3764038085938 104.6418838500977 112.5 102.7272644042969 112.5 Z" stroke="none"/>
          <path d="M 10.27274322509766 5.000007629394531 C 8.808517456054688 5.000007629394531 7.641860961914063 6.326583862304688 7.076759338378906 7.117340087890625 C 5.7569580078125 8.964202880859375 5 11.60952758789063 5 14.37500762939453 L 5 100.6249847412109 C 5 103.3904647827148 5.7569580078125 106.0357818603516 7.0767822265625 107.8826446533203 C 7.641876220703125 108.6734008789063 8.808517456054688 110 10.27274322509766 110 L 102.7272567749023 110 C 104.1914978027344 110 105.3581390380859 108.6734008789063 105.9232406616211 107.8826446533203 C 107.2430419921875 106.0357818603516 108 103.3904647827148 108 100.6249847412109 L 108 14.37500762939453 C 107.9999771118164 11.60952758789063 107.2430191040039 8.964202880859375 105.9232177734375 7.117340087890625 C 105.3581237792969 6.326583862304688 104.1914825439453 5.000007629394531 102.7272415161133 5.000007629394531 L 10.27274322509766 5.000007629394531 M 10.27274322509766 7.62939453125e-06 L 102.7272415161133 7.62939453125e-06 C 108.4009170532227 7.62939453125e-06 112.9999618530273 6.435646057128906 113 14.37498474121094 L 113 100.6249847412109 C 113 108.564323425293 108.4009170532227 115 102.7272567749023 115 L 10.27274322509766 115 C 4.599098205566406 115 0 108.564323425293 0 100.6249847412109 L 0 14.37500762939453 C 0 6.435646057128906 4.599098205566406 7.62939453125e-06 10.27274322509766 7.62939453125e-06 Z" stroke="none" fill="#08a8ef"/>
        </g>
        <line id="Línea_2" data-name="Línea 2" x2="76" transform="translate(18.061 100.271)" fill="none" stroke="#08a8ef" stroke-linecap="round" stroke-width="5"/>
      </g>
      <g id="photo_1_" data-name="photo (1)" transform="translate(23.08 23.259)">
        <path id="Trazado_1709" data-name="Trazado 1709" d="M61.841,61.2H4.193A4.193,4.193,0,0,0,0,65.394v42.974a4.193,4.193,0,0,0,4.193,4.192H61.841a4.193,4.193,0,0,0,4.193-4.193V65.394A4.193,4.193,0,0,0,61.841,61.2Zm0,4.193V95.885l-8.263-7.512a3.143,3.143,0,0,0-4.338.1l-8.362,8.361L24.389,77.143a3.144,3.144,0,0,0-4.794-.032l-15.4,17.9V65.394ZM44.022,76.4a5.765,5.765,0,1,1,5.765,5.765A5.764,5.764,0,0,1,44.022,76.4Z" transform="translate(0 -61.201)" fill="#08a8ef"/>
      </g>
    </g>
    <g id="Grupo_123" data-name="Grupo 123" transform="translate(2059.939 173.741)">
      <g id="Grupo_96-2" data-name="Grupo 96" transform="translate(0.061 0.259)">
        <g id="Trazado_1703-2" data-name="Trazado 1703" transform="translate(113 115) rotate(180)" fill="#fff">
          <path d="M 102.7272644042969 112.5 L 10.27274990081787 112.5 C 8.358133316040039 112.5 6.500750064849854 111.3764038085938 5.042766571044922 109.3361892700195 C 3.403033256530762 107.0416717529297 2.5 103.9479675292969 2.5 100.6249847412109 L 2.5 14.37500381469727 C 2.5 11.05202007293701 3.403033256530762 7.958320617675781 5.042766571044922 5.663803577423096 C 6.500750064849854 3.623603820800781 8.358133316040039 2.500003814697266 10.27274990081787 2.500003814697266 L 102.7272491455078 2.500003814697266 C 104.6418685913086 2.500003814697266 106.4992523193359 3.623587131500244 107.9572296142578 5.663803577423096 C 109.5969467163086 7.958303928375244 110.4999847412109 11.05200386047363 110.5 14.37500381469727 L 110.5 100.6249847412109 C 110.5 103.9479675292969 109.5969696044922 107.0416717529297 107.9572525024414 109.3361892700195 C 106.499267578125 111.3764038085938 104.6418838500977 112.5 102.7272644042969 112.5 Z" stroke="none"/>
          <path d="M 10.27274322509766 5.000007629394531 C 8.808517456054688 5.000007629394531 7.641860961914063 6.326583862304688 7.076759338378906 7.117340087890625 C 5.7569580078125 8.964202880859375 5 11.60952758789063 5 14.37500762939453 L 5 100.6249847412109 C 5 103.3904647827148 5.7569580078125 106.0357818603516 7.0767822265625 107.8826446533203 C 7.641876220703125 108.6734008789063 8.808517456054688 110 10.27274322509766 110 L 102.7272567749023 110 C 104.1914978027344 110 105.3581390380859 108.6734008789063 105.9232406616211 107.8826446533203 C 107.2430419921875 106.0357818603516 108 103.3904647827148 108 100.6249847412109 L 108 14.37500762939453 C 107.9999771118164 11.60952758789063 107.2430191040039 8.964202880859375 105.9232177734375 7.117340087890625 C 105.3581237792969 6.326583862304688 104.1914825439453 5.000007629394531 102.7272415161133 5.000007629394531 L 10.27274322509766 5.000007629394531 M 10.27274322509766 7.62939453125e-06 L 102.7272415161133 7.62939453125e-06 C 108.4009170532227 7.62939453125e-06 112.9999618530273 6.435646057128906 113 14.37498474121094 L 113 100.6249847412109 C 113 108.564323425293 108.4009170532227 115 102.7272567749023 115 L 10.27274322509766 115 C 4.599098205566406 115 0 108.564323425293 0 100.6249847412109 L 0 14.37500762939453 C 0 6.435646057128906 4.599098205566406 7.62939453125e-06 10.27274322509766 7.62939453125e-06 Z" stroke="none" fill="#08a8ef"/>
        </g>
        <line id="Línea_2-2" data-name="Línea 2" x2="76" transform="translate(18.061 100.271)" fill="none" stroke="#08a8ef" stroke-linecap="round" stroke-width="5"/>
      </g>
      <g id="photo_1_2" data-name="photo (1)" transform="translate(23.08 23.259)">
        <path id="Trazado_1709-2" data-name="Trazado 1709" d="M61.841,61.2H4.193A4.193,4.193,0,0,0,0,65.394v42.974a4.193,4.193,0,0,0,4.193,4.192H61.841a4.193,4.193,0,0,0,4.193-4.193V65.394A4.193,4.193,0,0,0,61.841,61.2Zm0,4.193V95.885l-8.263-7.512a3.143,3.143,0,0,0-4.338.1l-8.362,8.361L24.389,77.143a3.144,3.144,0,0,0-4.794-.032l-15.4,17.9V65.394ZM44.022,76.4a5.765,5.765,0,1,1,5.765,5.765A5.764,5.764,0,0,1,44.022,76.4Z" transform="translate(0 -61.201)" fill="#08a8ef"/>
      </g>
    </g>
  </g>
</svg>
