<svg xmlns="http://www.w3.org/2000/svg" width="230" height="230" viewBox="0 0 230 230">
  <g id="_21" data-name="21" transform="translate(-2859.984 -231)">
    <g id="Grupo_93" data-name="Grupo 93" transform="translate(2859.984 231)">
      <g id="Grupo_96" data-name="Grupo 96" transform="translate(0 0)">
        <g id="Trazado_1703" data-name="Trazado 1703" transform="translate(230 230) rotate(180)" fill="#fff">
          <path d="M 219.5454864501953 227.5 L 10.45457744598389 227.5 C 8.483046531677246 227.5 6.57573413848877 226.3701324462891 5.084015369415283 224.3185577392578 C 3.417702674865723 222.0268096923828 2.500015258789063 218.9381866455078 2.500015258789063 215.6216278076172 L 2.500046491622925 14.37837505340576 C 2.500046491622925 11.06178092956543 3.417733907699585 7.973156452178955 5.084046363830566 5.681437492370605 C 6.575765132904053 3.629843711853027 8.483078002929688 2.5 10.45460891723633 2.5 L 219.5454864501953 2.5 C 221.5170135498047 2.5 223.4243316650391 3.629843711853027 224.916015625 5.681437492370605 C 226.5823211669922 7.973156452178955 227.5000457763672 11.06178092956543 227.5000457763672 14.37834358215332 L 227.5000152587891 215.6216278076172 C 227.5000152587891 218.9381866455078 226.5823211669922 222.0268096923828 224.916015625 224.3185577392578 C 223.4243011474609 226.3701629638672 221.5170135498047 227.5 219.5454864501953 227.5 Z" stroke="none"/>
          <path d="M 10.45462036132813 5 C 8.902313232421875 5 7.690322875976563 6.348068237304688 7.106048583984375 7.15167236328125 C 5.767608642578125 8.99237060546875 5.000015258789063 11.62643432617188 5.000015258789063 14.37837219238281 L 4.999984741210938 215.6215972900391 C 4.999984741210938 218.3735656738281 5.767608642578125 221.0075988769531 7.10601806640625 222.8483276367188 C 7.690277099609375 223.6519012451172 8.90228271484375 225 10.45457458496094 225 L 219.5454864501953 225 C 221.0977478027344 225 222.3097229003906 223.6519317626953 222.8939819335938 222.8483734130859 C 224.2323760986328 221.0076293945313 224.9999847412109 218.3735656738281 224.9999847412109 215.6215972900391 L 225.0000152587891 14.37837219238281 C 225.0000152587891 11.62640380859375 224.2323760986328 8.99237060546875 222.8940124511719 7.151626586914063 C 222.3097229003906 6.348068237304688 221.0977783203125 5 219.5454864501953 5 L 10.45462036132813 5 M 10.45462036132813 0 L 219.5454864501953 0 C 225.3195495605469 0 229.9999847412109 6.437164306640625 230.0000152587891 14.37832641601563 L 229.9999847412109 215.6215972900391 C 229.9999847412109 223.5628051757813 225.3195190429688 230 219.5454864501953 230 L 10.45457458496094 230 C 4.680511474609375 230 -1.52587890625e-05 223.5628051757813 -1.52587890625e-05 215.6215972900391 L 1.52587890625e-05 14.37837219238281 C 1.52587890625e-05 6.437164306640625 4.6805419921875 0 10.45462036132813 0 Z" stroke="none" fill="#08a8ef"/>
        </g>
      </g>
      <line id="Línea_19" data-name="Línea 19" x2="31.974" transform="translate(99.028 217.524)" fill="none" stroke="#08a8ef" stroke-linecap="round" stroke-width="5"/>
      <line id="Línea_20" data-name="Línea 20" x2="43" transform="translate(93.516 209.522)" fill="none" stroke="#08a8ef" stroke-linecap="round" stroke-width="5"/>
    </g>
    <g id="photo_1_" data-name="photo (1)" transform="translate(2942 304)">
      <path id="Trazado_1709" data-name="Trazado 1709" d="M61.841,61.2H4.193A4.193,4.193,0,0,0,0,65.394v42.974a4.193,4.193,0,0,0,4.193,4.192H61.841a4.193,4.193,0,0,0,4.193-4.193V65.394A4.193,4.193,0,0,0,61.841,61.2Zm0,4.193V95.885l-8.263-7.512a3.143,3.143,0,0,0-4.338.1l-8.362,8.361L24.389,77.143a3.144,3.144,0,0,0-4.794-.032l-15.4,17.9V65.394ZM44.022,76.4a5.765,5.765,0,1,1,5.765,5.765A5.764,5.764,0,0,1,44.022,76.4Z" transform="translate(0 -61.201)" fill="#08a8ef"/>
    </g>
  </g>
</svg>
