<svg xmlns="http://www.w3.org/2000/svg" width="230" height="115" viewBox="0 0 230 115">
  <g id="Grupo_114" data-name="Grupo 114" transform="translate(-1628 -308.741)">
    <path id="Trazado_1711" data-name="Trazado 1711" d="M31.974,0" transform="translate(1649.013 393.771)" fill="none" stroke="#08a8ef" stroke-linecap="round" stroke-width="5"/>
    <g id="Grupo_111" data-name="Grupo 111" transform="translate(0 -135)">
      <g id="Trazado_1710" data-name="Trazado 1710" transform="translate(1743 558.741) rotate(180)" fill="#fff">
        <path d="M 104.5454635620117 112.5 L 51.45456695556641 112.5 C 49.48291778564453 112.5 47.5755500793457 111.3704147338867 46.0838508605957 109.3193130493164 C 44.41763305664063 107.0282669067383 43.5 103.9405670166016 43.5 100.625 L 43.5 14.375 C 43.5 11.05943298339844 44.41763305664063 7.971733570098877 46.0838508605957 5.680683135986328 C 47.5755500793457 3.629583358764648 49.48291778564453 2.5 51.45456695556641 2.5 L 104.5454330444336 2.5 C 106.5170974731445 2.5 108.4244537353516 3.629583358764648 109.9161529541016 5.680666446685791 C 111.5823516845703 7.97171688079834 112.4999847412109 11.05941677093506 112.5 14.37501621246338 L 112.5 100.625 C 112.5 103.9405822753906 111.5823822021484 107.0282821655273 109.9161682128906 109.3193359375 C 108.4244689941406 111.3704147338867 106.5171203613281 112.5 104.5454635620117 112.5 Z" stroke="none"/>
        <path d="M 51.45458221435547 5 C 49.90196228027344 5 48.68995666503906 6.347740173339844 48.10568237304688 7.151123046875 C 46.76750183105469 8.991119384765625 46 11.62412261962891 46 14.375 L 46 100.6249771118164 C 46 103.375862121582 46.76750183105469 106.0088577270508 48.10568237304688 107.848876953125 C 48.68995666503906 108.6522598266602 49.90196228027344 110 51.45458221435547 110 L 104.5454559326172 110 C 106.0980606079102 110 107.31005859375 108.6522598266602 107.8943176269531 107.8488998413086 C 109.2324981689453 106.0088806152344 110 103.375862121582 110 100.6249771118164 L 110 14.37502288818359 C 109.9999847412109 11.62413787841797 109.2324829101563 8.991119384765625 107.8943023681641 7.151100158691406 C 107.3100433349609 6.347740173339844 106.0980377197266 5 104.5454406738281 5 L 51.45458221435547 5 M 51.45458221435547 0 L 104.5454406738281 0 C 110.3195190429688 0 114.9999618530273 6.435661315917969 115 14.375 L 115 100.6249771118164 C 115 108.564338684082 110.3195190429688 115 104.5454559326172 115 L 51.45458221435547 115 C 45.68049621582031 115 41 108.564323425293 41 100.6249771118164 L 41 14.375 C 41 6.435661315917969 45.68049621582031 0 51.45458221435547 0 Z" stroke="none" fill="#08a8ef"/>
      </g>
      <line id="Línea_12" data-name="Línea 12" x2="31.974" transform="translate(1649.013 544.5)" fill="none" stroke="#08a8ef" stroke-linecap="round" stroke-width="5"/>
      <line id="Línea_13" data-name="Línea 13" x2="43" transform="translate(1643.5 536.5)" fill="none" stroke="#08a8ef" stroke-linecap="round" stroke-width="5"/>
      <g id="photo_1_" data-name="photo (1)" transform="translate(1640 401.799)">
        <path id="Trazado_1709" data-name="Trazado 1709" d="M46.357,61.2H3.143A3.143,3.143,0,0,0,0,64.344V96.558A3.143,3.143,0,0,0,3.143,99.7H46.357A3.143,3.143,0,0,0,49.5,96.558V64.344A3.143,3.143,0,0,0,46.357,61.2Zm0,3.143V87.2L40.163,81.57a2.356,2.356,0,0,0-3.252.078l-6.269,6.268L18.283,73.152a2.357,2.357,0,0,0-3.594-.024L3.143,86.546v-22.2ZM33,72.594a4.321,4.321,0,1,1,4.321,4.321A4.321,4.321,0,0,1,33,72.594Z" transform="translate(0 0)" fill="#08a8ef"/>
      </g>
    </g>
    <g id="Grupo_112" data-name="Grupo 112" transform="translate(78 -135)">
      <g id="Trazado_1710-2" data-name="Trazado 1710" transform="translate(1743 558.741) rotate(180)" fill="#fff">
        <path d="M 104.5454635620117 112.5 L 51.45456695556641 112.5 C 49.48291778564453 112.5 47.5755500793457 111.3704147338867 46.0838508605957 109.3193130493164 C 44.41763305664063 107.0282669067383 43.5 103.9405670166016 43.5 100.625 L 43.5 14.375 C 43.5 11.05943298339844 44.41763305664063 7.971733570098877 46.0838508605957 5.680683135986328 C 47.5755500793457 3.629583358764648 49.48291778564453 2.5 51.45456695556641 2.5 L 104.5454330444336 2.5 C 106.5170974731445 2.5 108.4244537353516 3.629583358764648 109.9161529541016 5.680666446685791 C 111.5823516845703 7.97171688079834 112.4999847412109 11.05941677093506 112.5 14.37501621246338 L 112.5 100.625 C 112.5 103.9405822753906 111.5823822021484 107.0282821655273 109.9161682128906 109.3193359375 C 108.4244689941406 111.3704147338867 106.5171203613281 112.5 104.5454635620117 112.5 Z" stroke="none"/>
        <path d="M 51.45458221435547 5 C 49.90196228027344 5 48.68995666503906 6.347740173339844 48.10568237304688 7.151123046875 C 46.76750183105469 8.991119384765625 46 11.62412261962891 46 14.375 L 46 100.6249771118164 C 46 103.375862121582 46.76750183105469 106.0088577270508 48.10568237304688 107.848876953125 C 48.68995666503906 108.6522598266602 49.90196228027344 110 51.45458221435547 110 L 104.5454559326172 110 C 106.0980606079102 110 107.31005859375 108.6522598266602 107.8943176269531 107.8488998413086 C 109.2324981689453 106.0088806152344 110 103.375862121582 110 100.6249771118164 L 110 14.37502288818359 C 109.9999847412109 11.62413787841797 109.2324829101563 8.991119384765625 107.8943023681641 7.151100158691406 C 107.3100433349609 6.347740173339844 106.0980377197266 5 104.5454406738281 5 L 51.45458221435547 5 M 51.45458221435547 0 L 104.5454406738281 0 C 110.3195190429688 0 114.9999618530273 6.435661315917969 115 14.375 L 115 100.6249771118164 C 115 108.564338684082 110.3195190429688 115 104.5454559326172 115 L 51.45458221435547 115 C 45.68049621582031 115 41 108.564323425293 41 100.6249771118164 L 41 14.375 C 41 6.435661315917969 45.68049621582031 0 51.45458221435547 0 Z" stroke="none" fill="#08a8ef"/>
      </g>
      <line id="Línea_12-2" data-name="Línea 12" x2="31.974" transform="translate(1649.013 544.5)" fill="none" stroke="#08a8ef" stroke-linecap="round" stroke-width="5"/>
      <line id="Línea_13-2" data-name="Línea 13" x2="43" transform="translate(1643.5 536.5)" fill="none" stroke="#08a8ef" stroke-linecap="round" stroke-width="5"/>
      <g id="photo_1_2" data-name="photo (1)" transform="translate(1640 401.799)">
        <path id="Trazado_1709-2" data-name="Trazado 1709" d="M46.357,61.2H3.143A3.143,3.143,0,0,0,0,64.344V96.558A3.143,3.143,0,0,0,3.143,99.7H46.357A3.143,3.143,0,0,0,49.5,96.558V64.344A3.143,3.143,0,0,0,46.357,61.2Zm0,3.143V87.2L40.163,81.57a2.356,2.356,0,0,0-3.252.078l-6.269,6.268L18.283,73.152a2.357,2.357,0,0,0-3.594-.024L3.143,86.546v-22.2ZM33,72.594a4.321,4.321,0,1,1,4.321,4.321A4.321,4.321,0,0,1,33,72.594Z" transform="translate(0 0)" fill="#08a8ef"/>
      </g>
    </g>
    <g id="Grupo_113" data-name="Grupo 113" transform="translate(156 -135)">
      <g id="Trazado_1710-3" data-name="Trazado 1710" transform="translate(1743 558.741) rotate(180)" fill="#fff">
        <path d="M 104.5454635620117 112.5 L 51.45456695556641 112.5 C 49.48291778564453 112.5 47.5755500793457 111.3704147338867 46.0838508605957 109.3193130493164 C 44.41763305664063 107.0282669067383 43.5 103.9405670166016 43.5 100.625 L 43.5 14.375 C 43.5 11.05943298339844 44.41763305664063 7.971733570098877 46.0838508605957 5.680683135986328 C 47.5755500793457 3.629583358764648 49.48291778564453 2.5 51.45456695556641 2.5 L 104.5454330444336 2.5 C 106.5170974731445 2.5 108.4244537353516 3.629583358764648 109.9161529541016 5.680666446685791 C 111.5823516845703 7.97171688079834 112.4999847412109 11.05941677093506 112.5 14.37501621246338 L 112.5 100.625 C 112.5 103.9405822753906 111.5823822021484 107.0282821655273 109.9161682128906 109.3193359375 C 108.4244689941406 111.3704147338867 106.5171203613281 112.5 104.5454635620117 112.5 Z" stroke="none"/>
        <path d="M 51.45458221435547 5 C 49.90196228027344 5 48.68995666503906 6.347740173339844 48.10568237304688 7.151123046875 C 46.76750183105469 8.991119384765625 46 11.62412261962891 46 14.375 L 46 100.6249771118164 C 46 103.375862121582 46.76750183105469 106.0088577270508 48.10568237304688 107.848876953125 C 48.68995666503906 108.6522598266602 49.90196228027344 110 51.45458221435547 110 L 104.5454559326172 110 C 106.0980606079102 110 107.31005859375 108.6522598266602 107.8943176269531 107.8488998413086 C 109.2324981689453 106.0088806152344 110 103.375862121582 110 100.6249771118164 L 110 14.37502288818359 C 109.9999847412109 11.62413787841797 109.2324829101563 8.991119384765625 107.8943023681641 7.151100158691406 C 107.3100433349609 6.347740173339844 106.0980377197266 5 104.5454406738281 5 L 51.45458221435547 5 M 51.45458221435547 0 L 104.5454406738281 0 C 110.3195190429688 0 114.9999618530273 6.435661315917969 115 14.375 L 115 100.6249771118164 C 115 108.564338684082 110.3195190429688 115 104.5454559326172 115 L 51.45458221435547 115 C 45.68049621582031 115 41 108.564323425293 41 100.6249771118164 L 41 14.375 C 41 6.435661315917969 45.68049621582031 0 51.45458221435547 0 Z" stroke="none" fill="#08a8ef"/>
      </g>
      <line id="Línea_12-3" data-name="Línea 12" x2="31.974" transform="translate(1649.013 544.5)" fill="none" stroke="#08a8ef" stroke-linecap="round" stroke-width="5"/>
      <line id="Línea_13-3" data-name="Línea 13" x2="43" transform="translate(1643.5 536.5)" fill="none" stroke="#08a8ef" stroke-linecap="round" stroke-width="5"/>
      <g id="photo_1_3" data-name="photo (1)" transform="translate(1640 401.799)">
        <path id="Trazado_1709-3" data-name="Trazado 1709" d="M46.357,61.2H3.143A3.143,3.143,0,0,0,0,64.344V96.558A3.143,3.143,0,0,0,3.143,99.7H46.357A3.143,3.143,0,0,0,49.5,96.558V64.344A3.143,3.143,0,0,0,46.357,61.2Zm0,3.143V87.2L40.163,81.57a2.356,2.356,0,0,0-3.252.078l-6.269,6.268L18.283,73.152a2.357,2.357,0,0,0-3.594-.024L3.143,86.546v-22.2ZM33,72.594a4.321,4.321,0,1,1,4.321,4.321A4.321,4.321,0,0,1,33,72.594Z" transform="translate(0 0)" fill="#08a8ef"/>
      </g>
    </g>
  </g>
</svg>
